<svg width="24" height="24" viewBox="0 0 24 24" fill="none" xmlns="http://www.w3.org/2000/svg">
<path fill-rule="evenodd" clip-rule="evenodd" d="M11.3405 2.34666C11.7567 2.14279 12.2438 2.14279 12.66 2.34666C13.0247 2.52529 13.2186 2.83785 13.3133 3.00229C13.414 3.17736 13.5173 3.40139 13.6197 3.6234C13.6247 3.6343 13.6297 3.6452 13.6348 3.65609L15.4952 7.68958L19.942 8.21681C20.1847 8.24555 20.4297 8.27455 20.6274 8.31629C20.813 8.35549 21.1702 8.44329 21.4528 8.73494C21.7753 9.06781 21.9258 9.53108 21.8605 9.98995C21.8034 10.392 21.566 10.673 21.4389 10.8138C21.3035 10.9637 21.1224 11.1312 20.9429 11.2971L17.6552 14.3374L18.5279 18.7295C18.5756 18.9692 18.6237 19.2112 18.6451 19.412C18.6652 19.6007 18.6921 19.9675 18.502 20.3264C18.2851 20.736 17.891 21.0223 17.4344 21.102C17.0344 21.1719 16.6938 21.033 16.5206 20.9556C16.3362 20.8732 16.121 20.7527 15.9077 20.6332L12.0002 18.446L8.09286 20.6332C7.87956 20.7526 7.66432 20.8732 7.4799 20.9556C7.30667 21.033 6.9661 21.1719 6.56605 21.102C6.10947 21.0223 5.71539 20.736 5.49848 20.3264C5.30842 19.9675 5.3353 19.6007 5.35538 19.412C5.37676 19.2112 5.42488 18.9692 5.47257 18.7294L6.34526 14.3374L3.0841 11.3216C3.0753 11.3134 3.06649 11.3053 3.05767 11.2972C2.87816 11.1312 2.69701 10.9637 2.56165 10.8138C2.4345 10.673 2.19715 10.392 2.13996 9.98995C2.07469 9.53108 2.22522 9.06781 2.54774 8.73494C2.83032 8.44329 3.1875 8.35549 3.37314 8.31629C3.57078 8.27455 3.81576 8.24555 4.05853 8.21681C4.07045 8.2154 4.08237 8.21399 4.09428 8.21258L8.50528 7.68958L10.3657 3.65609C10.3708 3.6452 10.3758 3.6343 10.3808 3.6234C10.4832 3.40139 10.5865 3.17737 10.6872 3.00229C10.7819 2.83785 10.9758 2.52529 11.3405 2.34666ZM13.0002 7.05551V16.7138L16.4748 18.6586L15.6718 14.6174C15.67 14.6084 15.6678 14.5979 15.6653 14.5862C15.6417 14.4725 15.5927 14.237 15.6194 13.9956C15.6418 13.792 15.7058 13.5952 15.8073 13.4173C15.9276 13.2063 16.1056 13.0446 16.1916 12.9666C16.2005 12.9585 16.2084 12.9513 16.2151 12.9451L19.2402 10.1476L15.1486 9.66249C15.1394 9.66141 15.1288 9.66024 15.1169 9.65894C15.0015 9.64632 14.7624 9.62016 14.541 9.5202C14.3544 9.4359 14.1869 9.31425 14.0491 9.16276C13.8856 8.98314 13.7868 8.76382 13.7392 8.65797C13.7342 8.64702 13.7299 8.63728 13.726 8.62893L13.0002 7.05551Z" fill="black"/>
</svg>
