<svg width="18" height="18" viewBox="0 0 18 18" fill="none" xmlns="http://www.w3.org/2000/svg">
<circle cx="9" cy="9" r="9" fill="#63788F"/>
<g clip-path="url(#clip0_1218_14190)">
<path d="M9.00001 3.66663C7.94517 3.66663 6.91403 3.97942 6.03697 4.56545C5.1599 5.15149 4.47632 5.98444 4.07265 6.95898C3.66898 7.93352 3.56336 9.00587 3.76915 10.0404C3.97494 11.075 4.48289 12.0253 5.22877 12.7712C5.97465 13.5171 6.92496 14.025 7.95952 14.2308C8.99409 14.4366 10.0664 14.331 11.041 13.9273C12.0155 13.5236 12.8485 12.8401 13.4345 11.963C14.0205 11.0859 14.3333 10.0548 14.3333 8.99996C14.3333 7.58547 13.7714 6.22892 12.7712 5.22872C11.771 4.22853 10.4145 3.66663 9.00001 3.66663V3.66663ZM8.63001 8.99996C8.63354 8.90988 8.61403 8.82039 8.57334 8.73996C8.17716 8.44925 7.8089 8.12228 7.47334 7.76329C7.21887 7.46499 7.07418 7.08857 7.06334 6.69662V6.02996H10.94V6.69662C10.9292 7.08857 10.7845 7.46499 10.53 7.76329C10.1956 8.12349 9.82725 8.45056 9.43001 8.73996C9.39284 8.82278 9.37353 8.91251 9.37334 9.00329C9.37374 9.08549 9.39313 9.16649 9.43001 9.23996C9.82725 9.52936 10.1956 9.85643 10.53 10.2166C10.7845 10.5149 10.9292 10.8913 10.94 11.2833V11.95H7.06001V11.2833C7.07085 10.8913 7.21553 10.5149 7.47001 10.2166C7.80395 9.85598 8.17237 9.52887 8.57001 9.23996C8.59967 9.16269 8.61982 9.0821 8.63001 8.99996Z" fill="white"/>
</g>
<defs>
<clipPath id="clip0_1218_14190">
<rect width="12" height="12" fill="white" transform="translate(3 3)"/>
</clipPath>
</defs>
</svg>
